<svg width="425" height="420" viewBox="0 0 425 420" fill="none" xmlns="http://www.w3.org/2000/svg">
<path d="M118.873 223.869C130.633 204.458 171.494 180.437 204.721 204.151M347.775 171.883C327.384 158.063 287.26 163.328 272.117 192.429M154.392 291.802C191.885 385.094 356.325 340.346 343.611 241.615C343.611 241.615 307.651 259.111 256.345 272.719C205.04 286.326 154.392 291.802 154.392 291.802ZM413.625 199.371C424.264 321.681 326.342 408.506 215.62 409.975C104.899 411.445 29.4424 347.204 12.8998 234.259C-3.64287 121.315 90.42 19.8468 195.001 10.7416C299.583 1.63638 402.986 77.0609 413.625 199.371Z" stroke="black" stroke-width="20"/>
</svg>
