<svg width="48" height="48" viewBox="0 0 48 48" fill="none" xmlns="http://www.w3.org/2000/svg">
<path d="M13.9326 25.4437C15.1953 23.3652 19.5827 20.7932 23.1504 23.3324M38.5107 19.8772C36.3213 18.3975 32.0131 18.9612 30.3871 22.0772M17.7465 32.7177C21.7722 42.7069 39.4289 37.9155 38.0637 27.3438C38.0637 27.3438 34.2025 29.2172 28.6936 30.6743C23.1847 32.1313 17.7465 32.7177 17.7465 32.7177ZM45.5814 22.8205C46.7238 35.9169 36.2094 45.2137 24.3208 45.3711C12.4321 45.5284 4.33004 38.6499 2.55378 26.5562C0.777523 14.4626 10.8775 3.59792 22.1068 2.62298C33.3362 1.64804 44.4391 9.72415 45.5814 22.8205Z" stroke="white" stroke-opacity="0.15" stroke-width="3.6503"/>
</svg>
