<svg width="32" height="32" viewBox="0 0 32 32" fill="none" xmlns="http://www.w3.org/2000/svg">
<path d="M9.57176 16.9969C10.3956 15.6408 13.2582 13.9627 15.5859 15.6194M25.6076 13.3651C24.1791 12.3997 21.3682 12.7675 20.3074 14.8005M12.0601 21.7427C14.6866 28.2602 26.2066 25.134 25.3159 18.2366C25.3159 18.2366 22.7967 19.4589 19.2025 20.4095C15.6082 21.3602 12.0601 21.7427 12.0601 21.7427ZM30.2208 15.2855C30.9661 23.8301 24.1061 29.8957 16.3495 29.9984C8.5928 30.101 3.30664 25.6132 2.14774 17.7228C0.988834 9.8324 7.57847 2.74381 14.905 2.10771C22.2315 1.47162 29.4755 6.74081 30.2208 15.2855Z" stroke="white" stroke-opacity="0.15" stroke-width="2.38161"/>
</svg>
