<svg width="16" height="17" viewBox="0 0 16 17" fill="none" xmlns="http://www.w3.org/2000/svg">
<g clip-path="url(#clip0_281_6182)">
<path d="M15.7548 10.4384C14.6878 14.7286 10.3421 17.3293 6.06301 16.2624C1.78397 15.1954 -0.827916 10.8497 0.239067 6.57061C1.30605 2.28045 5.65178 -0.320324 9.93083 0.746659C14.221 1.80253 16.8218 6.14826 15.7548 10.4384Z" fill="#F7931A"/>
<path d="M11.5202 7.35975C11.6758 6.29277 10.8644 5.72594 9.76411 5.33693L10.1198 3.89206L9.24173 3.66977L8.89718 5.07019C8.66378 5.01461 8.43038 4.95904 8.19698 4.90347L8.55263 3.49194L7.6746 3.26965L7.31894 4.71453C7.12999 4.67007 6.94105 4.62561 6.76322 4.58115L5.55175 4.28106L5.31834 5.21467C5.31834 5.21467 5.97409 5.35916 5.95186 5.37028C6.30753 5.45919 6.37421 5.69259 6.3631 5.88154L5.95186 7.52647C5.97409 7.53758 6.00744 7.53758 6.04078 7.55981C6.00744 7.5487 5.98521 7.5487 5.95186 7.53758L5.37392 9.83827C5.32946 9.94941 5.21831 10.105 4.9738 10.0494C4.98491 10.0606 4.34028 9.89384 4.34028 9.89384L3.90681 10.8941L5.0516 11.1831C5.26277 11.2387 5.47394 11.2943 5.674 11.3498L5.30723 12.8058L6.18527 13.0281L6.54093 11.5832C6.78544 11.6499 7.00773 11.7055 7.24114 11.7611L6.88547 13.1948L7.76351 13.4171L8.13029 11.9611C9.63073 12.239 10.7533 12.1278 11.2312 10.7719C11.6091 9.68266 11.209 9.04914 10.4199 8.63791C10.9756 8.51565 11.409 8.13776 11.5202 7.35975ZM9.51959 10.1717C9.25284 11.2609 7.40785 10.6718 6.81879 10.5274L7.29671 8.59345C7.89689 8.73794 9.79745 9.03803 9.51959 10.1717ZM9.78633 7.34864C9.54182 8.33782 8.00803 7.83767 7.519 7.71541L7.95246 5.95934C8.4526 6.0816 10.0531 6.315 9.78633 7.34864Z" fill="white"/>
</g>
<defs>
<clipPath id="clip0_281_6182">
<rect width="16" height="16" fill="white" transform="translate(0 0.5)"/>
</clipPath>
</defs>
</svg>
