<svg width="12" height="12" viewBox="0 0 12 12" fill="none" xmlns="http://www.w3.org/2000/svg">
<g clip-path="url(#clip0_560_12512)">
<path d="M11.8158 7.45389C11.0155 10.6715 7.75621 12.6221 4.54693 11.8219C1.33764 11.0216 -0.621269 7.76231 0.178968 4.55303C0.979206 1.33541 4.23851 -0.615167 7.44779 0.18507C10.6654 0.976972 12.616 4.23627 11.8158 7.45389Z" fill="#F7931A"/>
<path d="M8.63971 5.14485C8.75641 4.34461 8.1479 3.91948 7.32266 3.62773L7.5894 2.54408L6.93087 2.37736L6.67246 3.42767C6.49741 3.38599 6.32236 3.34431 6.14731 3.30263L6.41405 2.24399L5.75552 2.07727L5.48878 3.16092C5.34707 3.12758 5.20536 3.09424 5.07199 3.06089L4.16339 2.83583L3.98833 3.53604C3.98833 3.53604 4.48015 3.6444 4.46347 3.65274C4.73022 3.71942 4.78024 3.89448 4.7719 4.03618L4.46347 5.26988C4.48015 5.27822 4.50515 5.27822 4.53016 5.29489C4.50515 5.28655 4.48848 5.28655 4.46347 5.27822L4.03001 7.00373C3.99667 7.08709 3.91331 7.20379 3.72993 7.16211C3.73826 7.17045 3.25478 7.04541 3.25478 7.04541L2.92969 7.79563L3.78828 8.01236C3.94666 8.05404 4.10504 8.09572 4.25508 8.1374L3.98 9.22939L4.63853 9.3961L4.90527 8.31245C5.08866 8.36247 5.25538 8.40414 5.43043 8.44582L5.16368 9.52114L5.82221 9.68786L6.09729 8.59587C7.22263 8.80426 8.06454 8.7209 8.42298 7.70394C8.7064 6.88703 8.40631 6.41189 7.81447 6.10346C8.23126 6.01177 8.55635 5.72835 8.63971 5.14485ZM7.13927 7.2538C6.93921 8.07071 5.55547 7.62891 5.11367 7.52055L5.47211 6.07012C5.92224 6.17849 7.34766 6.40355 7.13927 7.2538ZM7.33933 5.13651C7.15594 5.8784 6.0056 5.50329 5.63882 5.41159L5.96392 4.09453C6.33903 4.18623 7.53939 4.36128 7.33933 5.13651Z" fill="#FCFCFC"/>
</g>
<defs>
<clipPath id="clip0_560_12512">
<rect width="12" height="12" fill="white"/>
</clipPath>
</defs>
</svg>
