<svg width="80" height="18" viewBox="0 0 80 18" fill="none" xmlns="http://www.w3.org/2000/svg">
<path d="M24.2484 1.94944C24.2484 1.82353 24.1463 1.72146 24.0204 1.72146H21.7834C21.6575 1.72146 21.5554 1.82353 21.5554 1.94944V15.7858C21.5554 15.9117 21.6575 16.0138 21.7834 16.0138H24.0204C24.1463 16.0138 24.2484 15.9117 24.2484 15.7858V1.94944Z" fill="#FCFCFC" stroke="#3661F9" stroke-width="0.0414508"/>
<path d="M27.6608 15.3081L27.6609 15.3081C28.4508 15.7789 29.3957 16.0138 30.4945 16.0138C31.4165 16.0138 32.2201 15.851 32.9048 15.5247L32.9049 15.5247C33.5893 15.1938 34.1306 14.7369 34.5282 14.1538L34.5283 14.1538C34.8862 13.6247 35.1082 13.0259 35.1943 12.3575C35.2114 12.2243 35.1052 12.1104 34.9723 12.1104H32.8946C32.7855 12.1104 32.6935 12.1877 32.6665 12.292C32.586 12.6035 32.4591 12.8727 32.2862 13.0997C32.0834 13.3661 31.8311 13.5704 31.5292 13.7128C31.2322 13.8505 30.8946 13.9196 30.516 13.9196C29.9814 13.9196 29.5163 13.7815 29.12 13.5059C28.7282 13.2255 28.4231 12.8276 28.2052 12.311C27.9873 11.79 27.878 11.1666 27.878 10.4403C27.878 9.72328 27.9873 9.10922 28.2051 8.59749C28.4277 8.08562 28.7375 7.69465 29.134 7.4235L29.1341 7.42341C29.5306 7.1477 29.9909 7.00962 30.516 7.00962C31.1361 7.00962 31.6285 7.18235 31.9955 7.5259L31.9957 7.52608C32.3278 7.82894 32.5513 8.19902 32.6663 8.63676C32.6938 8.74102 32.7858 8.8188 32.8952 8.8188H34.974C35.1063 8.8188 35.2122 8.70605 35.1961 8.57342C35.1131 7.8923 34.8857 7.2904 34.5137 6.76818C34.1017 6.18513 33.5485 5.7352 32.8546 5.41834C32.1653 5.09679 31.3737 4.93631 30.4802 4.93631C29.4051 4.93631 28.4722 5.17128 27.6823 5.64203L27.6929 5.65983L27.6823 5.64201C26.8975 6.10795 26.2897 6.76034 25.8592 7.59868C25.4286 8.43243 25.2136 9.39373 25.2136 10.482C25.2136 11.5656 25.4238 12.5245 25.8448 13.3582L25.8449 13.3584C26.2707 14.1875 26.876 14.8375 27.6608 15.3081Z" fill="#FCFCFC" stroke="#3661F9" stroke-width="0.0414508"/>
<path d="M38.6729 15.343L38.673 15.3431C39.4771 15.7904 40.4313 16.0137 41.5347 16.0137C42.3896 16.0137 43.1498 15.8881 43.8148 15.6366L43.8149 15.6365C44.4798 15.3804 45.0257 15.0216 45.4522 14.5597C45.8299 14.1511 46.101 13.6816 46.2655 13.1513C46.3068 13.0184 46.2127 12.886 46.0761 12.871L44.0549 12.6498C43.9514 12.6384 43.8554 12.6991 43.8122 12.792C43.7028 13.0269 43.5561 13.2282 43.3718 13.3961C43.1501 13.5982 42.8882 13.7522 42.5858 13.858C42.2833 13.9592 41.945 14.01 41.5705 14.01C41.0112 14.01 40.524 13.8946 40.1084 13.6647C39.6927 13.4301 39.3691 13.0945 39.1374 12.6572C38.9163 12.2354 38.8003 11.7331 38.7903 11.1498H46.2089C46.3348 11.1498 46.4368 11.0477 46.4368 10.9218V10.3566C46.4368 9.41769 46.3032 8.60781 46.0352 7.92752C45.7674 7.24316 45.3989 6.67917 44.9295 6.2361C44.4652 5.7934 43.929 5.46714 43.3212 5.25743C42.7185 5.04322 42.0777 4.93618 41.399 4.93618C40.3476 4.93618 39.4313 5.17119 38.651 5.64194C37.8709 6.10789 37.2632 6.76025 36.828 7.59852L36.8279 7.59856C36.3974 8.43235 36.1824 9.40061 36.1824 10.5028C36.1824 11.6234 36.3973 12.5987 36.828 13.4279L36.828 13.4279C37.2586 14.2525 37.8737 14.891 38.6729 15.343ZM43.7268 9.41045H38.7962C38.8234 9.00306 38.9324 8.62604 39.1229 8.27912C39.3451 7.87873 39.6547 7.55662 40.0519 7.3126L40.052 7.31251C40.4486 7.06431 40.9092 6.93991 41.4347 6.93991C41.9271 6.93991 42.3569 7.04821 42.7249 7.26411L42.725 7.26416C43.0982 7.48031 43.3885 7.77678 43.5964 8.15387L43.5964 8.15396C43.7737 8.47168 43.8772 8.82811 43.9067 9.22359C43.9143 9.32561 43.8309 9.41045 43.7268 9.41045Z" fill="#FCFCFC" stroke="#3661F9" stroke-width="0.0414508"/>
<path d="M56.8942 13.4503L56.8942 13.4503C57.2929 12.6177 57.4915 11.6208 57.4915 10.4611C57.4915 9.30137 57.2906 8.30677 56.887 7.47874C56.4885 6.65145 55.938 6.01661 55.235 5.57596C54.5323 5.13544 53.7336 4.91554 52.8402 4.91554C52.155 4.91554 51.5996 5.02741 51.177 5.25439C50.7587 5.47442 50.4299 5.73289 50.1921 6.03055C49.9721 6.30585 49.7999 6.55128 49.676 6.76668C49.6685 6.7796 49.655 6.78735 49.6408 6.78735C49.6189 6.78735 49.6012 6.76964 49.6012 6.7478V1.7407C49.6012 1.60335 49.4899 1.492 49.3525 1.492H47.6301C47.4927 1.492 47.3814 1.60334 47.3814 1.7407V15.577C47.3814 15.7144 47.4927 15.8257 47.6301 15.8257H49.3025C49.4399 15.8257 49.5512 15.7144 49.5512 15.577V14.2341C49.5512 14.1947 49.5832 14.1627 49.6226 14.1627C49.6482 14.1627 49.6722 14.1765 49.6857 14.1993C49.8134 14.4151 49.9872 14.6576 50.2066 14.9268C50.4492 15.2244 50.7828 15.4828 51.2059 15.7028L51.2061 15.7029C51.6379 15.9249 52.1905 16.0345 52.8617 16.0345C53.7551 16.0345 54.5515 15.8122 55.2496 15.3669L55.2498 15.3668C55.9477 14.9169 56.4958 14.2775 56.8942 13.4503ZM54.9171 12.3526L54.917 12.3528C54.7002 12.9173 54.3805 13.363 53.9584 13.6918C53.5381 14.0146 53.0138 14.1772 52.3828 14.1772C51.7757 14.1772 51.2655 14.0216 50.8497 13.7123C50.4326 13.3975 50.1129 12.9611 49.8914 12.4012C49.6697 11.8411 49.5584 11.1877 49.5584 10.4402C49.5584 9.70198 49.6674 9.05788 49.8842 8.50705C50.1009 7.9567 50.418 7.52973 50.8349 7.22417C51.2555 6.91934 51.7707 6.76588 52.3828 6.76588C53.0188 6.76588 53.5456 6.9263 53.9659 7.24456L53.966 7.2447C54.3927 7.56422 54.7122 8.00055 54.9242 8.55537L54.9243 8.55565C55.1413 9.11142 55.2502 9.7394 55.2502 10.4402C55.2502 11.1503 55.1389 11.7875 54.9171 12.3526Z" fill="#FCFCFC" stroke="#3661F9" stroke-width="0.0829016"/>
<path d="M66.1717 12.3462L66.1716 12.3465C65.9643 12.9105 65.6447 13.3609 65.2129 13.699C64.7833 14.0355 64.2401 14.2051 63.5804 14.2051C62.9159 14.2051 62.368 14.0355 61.9335 13.6989C61.5018 13.3608 61.1797 12.9104 60.9677 12.3463C60.76 11.7809 60.6559 11.1573 60.6559 10.4751C60.6559 9.79746 60.76 9.17615 60.9678 8.61069C61.1798 8.0419 61.5019 7.58685 61.9337 7.2441C62.3682 6.903 62.9161 6.73113 63.5804 6.73113C64.24 6.73113 64.7831 6.90298 65.2127 7.24403C65.6445 7.58675 65.9643 8.04174 66.1715 8.61048L66.1717 8.61087C66.3841 9.17627 66.4906 9.79753 66.4906 10.4751C66.4906 11.1573 66.3841 11.7808 66.1717 12.3462ZM60.8576 15.3398C61.632 15.8034 62.5378 16.0345 63.5733 16.0345C64.6088 16.0345 65.5145 15.8034 66.289 15.3398C67.063 14.8764 67.6638 14.228 68.0913 13.3957C68.5189 12.5631 68.7319 11.5914 68.7319 10.482C68.7319 9.36799 68.5189 8.39176 68.0913 7.55455C67.6639 6.71756 67.063 6.06682 66.289 5.60339C65.5145 5.13973 64.6088 4.90862 63.5733 4.90862C62.5378 4.90862 61.632 5.13973 60.8576 5.60339C60.0835 6.06682 59.4826 6.71756 59.0552 7.55455C58.6277 8.39176 58.4146 9.36799 58.4146 10.482C58.4146 11.5914 58.6277 12.5631 59.0553 13.3957C59.4827 14.228 60.0836 14.8764 60.8576 15.3398Z" fill="#FCFCFC" stroke="#3661F9" stroke-width="0.0829016"/>
<path d="M72.6039 5.40056C72.5636 5.32869 72.4876 5.28421 72.4052 5.28421H70.1512C69.9733 5.28421 69.8639 5.47897 69.9566 5.63088L72.9567 10.5505C72.9935 10.6108 72.993 10.6867 72.9556 10.7465L69.8773 15.6649C69.7822 15.8167 69.8914 16.0138 70.0705 16.0138H72.3232C72.4034 16.0138 72.4777 15.9717 72.5188 15.9028L74.5828 12.4517C74.655 12.331 74.8298 12.3306 74.9025 12.4511L76.9866 15.9036C77.0279 15.972 77.1019 16.0138 77.1818 16.0138H79.4123C79.5917 16.0138 79.7008 15.8161 79.6052 15.6643L76.5081 10.7475C76.4701 10.6872 76.4698 10.6105 76.5073 10.5499L79.5523 5.6322C79.6464 5.48033 79.5371 5.28421 79.3585 5.28421H77.1137C77.0318 5.28421 76.9562 5.3281 76.9157 5.3992L74.9055 8.92209C74.8336 9.04803 74.6518 9.0474 74.5808 8.92097L72.6039 5.40056Z" fill="#FCFCFC" stroke="#3661F9" stroke-width="0.0414508"/>
<path d="M8.48554 3.36646C5.4246 3.36646 2.94238 5.78321 2.94238 8.7634C2.94238 11.7436 5.42461 14.1603 8.48554 14.1603C11.5465 14.1603 14.0287 11.7436 14.0287 8.7634C14.0287 5.78321 11.5465 3.36646 8.48554 3.36646ZM8.48554 13.4372C5.83369 13.4372 3.68517 11.3442 3.68517 8.7634C3.68517 6.18258 5.8348 4.08964 8.48554 4.08964C11.1363 4.08964 13.2859 6.18258 13.2859 8.7634C13.2859 11.3442 11.1363 13.4372 8.48554 13.4372Z" fill="#3661F9"/>
<path d="M8.47687 11.6943C10.1441 11.6943 11.4957 10.3783 11.4957 8.75503C11.4957 7.13174 10.1441 5.8158 8.47687 5.8158C6.80959 5.8158 5.45801 7.13174 5.45801 8.75503C5.45801 10.3783 6.80959 11.6943 8.47687 11.6943Z" fill="#3661F9"/>
<rect x="0.841266" y="1.3315" width="15.2887" height="14.8636" rx="0.414508" stroke="#3661F9" stroke-width="0.829016" stroke-linecap="round" stroke-dasharray="4.97 4.97"/>
</svg>
