<svg width="17" height="17" viewBox="0 0 17 17" fill="none" xmlns="http://www.w3.org/2000/svg">
<path d="M8.5 2.81042C5.2731 2.81042 2.6563 5.35821 2.6563 8.49999C2.6563 11.6418 5.27311 14.1895 8.5 14.1895C11.7269 14.1895 14.3437 11.6418 14.3437 8.49999C14.3437 5.35821 11.7269 2.81042 8.5 2.81042ZM8.5 13.4272C5.70437 13.4272 3.43936 11.2207 3.43936 8.49999C3.43936 5.77924 5.70554 3.57282 8.5 3.57282C11.2945 3.57282 13.5607 5.77924 13.5607 8.49999C13.5607 11.2207 11.2945 13.4272 8.5 13.4272Z" fill="#3661F9"/>
<path d="M8.49103 11.6175C10.2496 11.6175 11.6751 10.2178 11.6751 8.49111C11.6751 6.76447 10.2496 5.36475 8.49103 5.36475C6.73249 5.36475 5.30692 6.76447 5.30692 8.49111C5.30692 10.2178 6.73249 11.6175 8.49103 11.6175Z" fill="#3661F9"/>
<rect x="0.436982" y="0.591096" width="16.126" height="15.8178" rx="0.436982" stroke="#3661F9" stroke-width="0.873964" stroke-linecap="round" stroke-dasharray="5.24 5.24"/>
</svg>
