<svg width="127" height="26" viewBox="0 0 127 26" fill="none" xmlns="http://www.w3.org/2000/svg">
<path d="M38.494 1.80753C38.494 1.60765 38.332 1.44561 38.1321 1.44561H34.5808C34.381 1.44561 34.2189 1.60765 34.2189 1.80753V23.7727C34.2189 23.9726 34.381 24.1346 34.5808 24.1346H38.1321C38.332 24.1346 38.494 23.9726 38.494 23.7727V1.80753Z" fill="#3661F9" stroke="#3661F9" stroke-width="0.0658031"/>
<path d="M43.9106 23.0142L43.9107 23.0142C45.1648 23.7616 46.6647 24.1345 48.4091 24.1345C49.8728 24.1345 51.1486 23.8761 52.2355 23.3581L52.2356 23.358C53.322 22.8328 54.1813 22.1075 54.8126 21.1818L54.8127 21.1817C55.3809 20.3419 55.7333 19.3912 55.87 18.3302C55.8972 18.1187 55.7287 17.9379 55.5176 17.9379H52.2193C52.0461 17.9379 51.9 18.0607 51.8572 18.2261C51.7293 18.7207 51.5279 19.148 51.2534 19.5085C50.9314 19.9314 50.5309 20.2557 50.0516 20.4818C49.5801 20.7004 49.0441 20.81 48.4432 20.81C47.5945 20.81 46.8563 20.5908 46.227 20.1533C45.605 19.7081 45.1207 19.0764 44.7748 18.2564C44.429 17.4292 44.2555 16.4396 44.2555 15.2865C44.2555 14.1483 44.4289 13.1735 44.7747 12.3612C45.1281 11.5486 45.6199 10.9279 46.2493 10.4974L46.2495 10.4973C46.8789 10.0596 47.6097 9.84039 48.4432 9.84039C49.4277 9.84039 50.2094 10.1146 50.792 10.66L50.7923 10.6603C51.3195 11.1411 51.6742 11.7286 51.8569 12.4235C51.9004 12.589 52.0465 12.7125 52.2203 12.7125H55.5203C55.7303 12.7125 55.8985 12.5335 55.8728 12.3229C55.7411 11.2416 55.3802 10.2861 54.7896 9.4571C54.1356 8.53152 53.2573 7.81727 52.1557 7.31425C51.0615 6.80379 49.8048 6.54901 48.3864 6.54901C46.6797 6.54901 45.1987 6.92202 43.9448 7.66933C42.6988 8.40902 41.734 9.44469 41.0505 10.7756C40.367 12.0991 40.0258 13.6252 40.0258 15.3528C40.0258 17.073 40.3594 18.5953 41.0277 19.9188L41.0278 19.919C41.7037 21.2352 42.6648 22.2672 43.9106 23.0142Z" fill="#3661F9" stroke="#3661F9" stroke-width="0.0658031"/>
<path d="M61.3928 23.0698L61.393 23.0699C62.6695 23.7801 64.1843 24.1345 65.936 24.1345C67.2931 24.1345 68.4998 23.9352 69.5556 23.5359L69.5558 23.5358C70.6112 23.1292 71.4779 22.5595 72.155 21.8263C72.7545 21.1777 73.185 20.4323 73.4461 19.5906C73.5116 19.3795 73.3622 19.1693 73.1454 19.1455L69.9368 18.7943C69.7724 18.7763 69.6201 18.8727 69.5514 19.0201C69.3778 19.393 69.1448 19.7125 68.8524 19.9791C68.5004 20.2999 68.0846 20.5444 67.6045 20.7124C67.1244 20.8731 66.5872 20.9536 65.9927 20.9536C65.1049 20.9536 64.3315 20.7705 63.6716 20.4055C63.0117 20.0332 62.498 19.5003 62.1303 18.8061C61.7792 18.1365 61.5951 17.3392 61.5792 16.413H73.3561C73.556 16.413 73.7181 16.251 73.7181 16.0511V15.154C73.7181 13.6634 73.5059 12.3777 73.0804 11.2977C72.6553 10.2114 72.0704 9.31605 71.3252 8.61269C70.5881 7.90987 69.7369 7.39192 68.772 7.05899C67.8152 6.71894 66.798 6.54901 65.7204 6.54901C64.0514 6.54901 62.5968 6.92207 61.3581 7.66939C60.1197 8.40909 59.155 9.44471 58.464 10.7755L58.4639 10.7755C57.7804 12.0992 57.4391 13.6363 57.4391 15.386C57.4391 17.165 57.7803 18.7132 58.464 20.0296L58.464 20.0297C59.1476 21.3387 60.1241 22.3523 61.3928 23.0698ZM69.4159 13.6519H61.5886C61.6318 13.0052 61.8047 12.4067 62.1072 11.856C62.4599 11.2203 62.9513 10.709 63.5819 10.3216L63.5822 10.3214C64.2117 9.9274 64.943 9.72992 65.7772 9.72992C66.5588 9.72992 67.2412 9.90184 67.8254 10.2446L67.8256 10.2447C68.418 10.5878 68.8789 11.0585 69.2088 11.6571L69.2089 11.6572C69.4903 12.1616 69.6546 12.7274 69.7015 13.3553C69.7136 13.5172 69.5812 13.6519 69.4159 13.6519Z" fill="#3661F9" stroke="#3661F9" stroke-width="0.0658031"/>
<path d="M90.3184 20.0652L90.3185 20.065C90.9515 18.7433 91.2666 17.1608 91.2666 15.3197C91.2666 13.4787 90.9477 11.8997 90.307 10.5852C89.6744 9.27192 88.8005 8.26411 87.6846 7.56459C86.5689 6.86525 85.301 6.51617 83.8828 6.51617C82.795 6.51617 81.9133 6.69377 81.2424 7.0541C80.5784 7.40339 80.0563 7.81371 79.6788 8.28624C79.3297 8.72328 79.0563 9.1129 78.8595 9.45485C78.8477 9.47536 78.8263 9.48767 78.8037 9.48767C78.769 9.48767 78.7409 9.45956 78.7409 9.42487V1.47611C78.7409 1.25806 78.5641 1.08129 78.3461 1.08129H75.6117C75.3937 1.08129 75.2169 1.25806 75.2169 1.47611V23.4413C75.2169 23.6594 75.3937 23.8361 75.6117 23.8361H78.2667C78.4847 23.8361 78.6615 23.6594 78.6615 23.4413V21.3094C78.6615 21.2468 78.7122 21.196 78.7749 21.196C78.8155 21.196 78.8536 21.2179 78.875 21.2541C79.0777 21.5966 79.3536 21.9817 79.7019 22.409C80.087 22.8814 80.6167 23.2917 81.2883 23.6409L81.2886 23.641C81.974 23.9935 82.8514 24.1675 83.9168 24.1675C85.3352 24.1675 86.5995 23.8147 87.7077 23.1078L87.7079 23.1076C88.816 22.3934 89.6859 21.3783 90.3184 20.0652ZM87.1799 18.3224L87.1797 18.3229C86.8356 19.2189 86.3279 19.9265 85.6579 20.4485C84.9906 20.9609 84.1584 21.219 83.1567 21.219C82.1928 21.219 81.3828 20.9719 80.7228 20.481C80.0607 19.9812 79.5531 19.2884 79.2015 18.3996C78.8496 17.5104 78.6728 16.4732 78.6728 15.2866C78.6728 14.1146 78.8459 13.0921 79.1902 12.2177C79.5342 11.344 80.0376 10.6661 80.6994 10.1811C81.3671 9.69718 82.1849 9.45358 83.1567 9.45358C84.1664 9.45358 85.0026 9.70825 85.6698 10.2135L85.67 10.2137C86.3473 10.721 86.8546 11.4136 87.191 12.2944L87.1912 12.2948C87.5357 13.1771 87.7086 14.174 87.7086 15.2866C87.7086 16.4138 87.5319 17.4254 87.1799 18.3224Z" fill="#3661F9" stroke="#3661F9" stroke-width="0.131606"/>
<path d="M105.047 18.3123L105.047 18.3127C104.718 19.2082 104.21 19.9231 103.525 20.4598C102.843 20.994 101.981 21.2632 100.933 21.2632C99.8784 21.2632 99.0085 20.994 98.3188 20.4597C97.6334 19.9229 97.1222 19.208 96.7856 18.3125C96.4559 17.4149 96.2906 16.4249 96.2906 15.3418C96.2906 14.2662 96.4559 13.2798 96.7857 12.3821C97.1223 11.4792 97.6336 10.7568 98.3191 10.2127C99.0088 9.6712 99.8786 9.39835 100.933 9.39835C101.98 9.39835 102.842 9.67117 103.525 10.2126C104.21 10.7566 104.718 11.4789 105.047 12.3818L105.047 12.3824C105.384 13.28 105.553 14.2663 105.553 15.3418C105.553 16.4248 105.384 17.4148 105.047 18.3123ZM96.6108 23.0646C97.8402 23.8006 99.278 24.1675 100.922 24.1675C102.566 24.1675 104.004 23.8006 105.233 23.0646C106.462 22.3289 107.416 21.2996 108.094 19.9783C108.773 18.6565 109.111 17.1141 109.111 15.3529C109.111 13.5844 108.773 12.0346 108.094 10.7055C107.416 9.37681 106.462 8.34376 105.233 7.60807C104.004 6.87201 102.566 6.50512 100.922 6.50512C99.278 6.50512 97.8402 6.87201 96.6108 7.60807C95.3819 8.34376 94.4281 9.37681 93.7495 10.7055C93.0708 12.0346 92.7325 13.5844 92.7325 15.3529C92.7325 17.1141 93.0708 18.6565 93.7496 19.9783C94.4282 21.2996 95.382 22.3289 96.6108 23.0646Z" fill="#3661F9" stroke="#3661F9" stroke-width="0.131606"/>
<path d="M115.259 7.28609C115.195 7.172 115.074 7.10138 114.943 7.10138H111.365C111.083 7.10138 110.909 7.41056 111.056 7.65173L115.819 15.4616C115.877 15.5573 115.876 15.6778 115.817 15.7728L110.93 23.5807C110.779 23.8217 110.953 24.1346 111.237 24.1346H114.813C114.94 24.1346 115.058 24.0677 115.124 23.9584L118.4 18.4798C118.515 18.2881 118.792 18.2875 118.908 18.4788L122.216 23.9597C122.282 24.0683 122.399 24.1346 122.526 24.1346H126.067C126.352 24.1346 126.525 23.8208 126.373 23.5798L121.457 15.7743C121.396 15.6786 121.396 15.5568 121.455 15.4606L126.289 7.65382C126.439 7.41272 126.265 7.10138 125.982 7.10138H122.418C122.288 7.10138 122.168 7.17105 122.104 7.28393L118.912 12.8765C118.798 13.0764 118.51 13.0755 118.397 12.8747L115.259 7.28609Z" fill="#3661F9" stroke="#3661F9" stroke-width="0.0658031"/>
<path d="M13.4708 4.05676C8.61155 4.05676 4.67102 7.89336 4.67102 12.6244C4.67102 17.3555 8.61156 21.1921 13.4708 21.1921C18.33 21.1921 22.2705 17.3555 22.2705 12.6244C22.2705 7.89336 18.33 4.05676 13.4708 4.05676ZM13.4708 20.044C9.26097 20.044 5.85019 16.7215 5.85019 12.6244C5.85019 8.52736 9.26273 5.20482 13.4708 5.20482C17.6788 5.20482 21.0914 8.52736 21.0914 12.6244C21.0914 16.7215 17.6788 20.044 13.4708 20.044Z" fill="#3661F9"/>
<path d="M13.4573 17.2771C16.1041 17.2771 18.2498 15.1881 18.2498 12.6111C18.2498 10.0341 16.1041 7.94507 13.4573 7.94507C10.8105 7.94507 8.66486 10.0341 8.66486 12.6111C8.66486 15.1881 10.8105 17.2771 13.4573 17.2771Z" fill="#3661F9"/>
<rect x="1.33534" y="0.826366" width="24.2709" height="23.596" rx="0.658031" stroke="#3661F9" stroke-width="1.31606" stroke-linecap="round" stroke-dasharray="7.9 7.9"/>
</svg>
