<svg width="13" height="12" viewBox="0 0 13 12" fill="none" xmlns="http://www.w3.org/2000/svg">
<path d="M6.11082 1.90961C3.79094 1.90961 1.90967 3.74126 1.90967 5.99994C1.90967 8.25863 3.79094 10.0903 6.11082 10.0903C8.4307 10.0903 10.312 8.25863 10.312 5.99994C10.312 3.74126 8.43069 1.90961 6.11082 1.90961ZM6.11082 9.54218C4.10098 9.54218 2.47262 7.95594 2.47262 5.99994C2.47262 4.04394 4.10182 2.45771 6.11082 2.45771C8.11981 2.45771 9.74902 4.04394 9.74902 5.99994C9.74902 7.95594 8.11981 9.54218 6.11082 9.54218Z" fill="#3661F9"/>
<path d="M6.10454 8.24131C7.36879 8.24131 8.39367 7.23502 8.39367 5.9937C8.39367 4.75238 7.36879 3.74609 6.10454 3.74609C4.8403 3.74609 3.81543 4.75238 3.81543 5.9937C3.81543 7.23502 4.8403 8.24131 6.10454 8.24131Z" fill="#3661F9"/>
<rect x="0.314155" y="0.314155" width="11.5933" height="11.3717" rx="0.314155" stroke="#3661F9" stroke-width="0.628309" stroke-linecap="round" stroke-dasharray="3.77 3.77"/>
</svg>
