<svg width="16" height="16" viewBox="0 0 16 16" fill="none" xmlns="http://www.w3.org/2000/svg">
<path d="M15.3538 4.85376L13.485 6.72251C13.1075 11.0988 9.41691 14.5 5.00003 14.5C4.09253 14.5 3.34441 14.3563 2.77628 14.0725C2.31816 13.8431 2.13066 13.5975 2.08378 13.5275C2.04198 13.4648 2.01489 13.3935 2.00453 13.3189C1.99417 13.2443 2.00081 13.1683 2.02394 13.0966C2.04708 13.0249 2.08612 12.9593 2.13815 12.9048C2.19018 12.8503 2.25385 12.8083 2.32441 12.7819C2.34066 12.7756 3.83941 12.2 4.79128 11.1044C4.2634 10.6704 3.80258 10.1607 3.42378 9.59188C2.64878 8.44126 1.78128 6.44251 2.04878 3.45563C2.05726 3.36072 2.09268 3.27021 2.15088 3.19476C2.20907 3.11931 2.28761 3.06206 2.37725 3.02975C2.4669 2.99744 2.5639 2.99141 2.65685 3.01239C2.7498 3.03336 2.83483 3.08046 2.90191 3.14813C2.92378 3.17001 4.98191 5.21688 7.49816 5.88063V5.50001C7.4972 5.10088 7.57611 4.70559 7.73025 4.33743C7.88438 3.96926 8.11063 3.63566 8.39566 3.35626C8.67247 3.07984 9.00184 2.86166 9.36434 2.7146C9.72684 2.56754 10.1151 2.49457 10.5063 2.50001C11.031 2.50518 11.5455 2.64604 11.9996 2.90889C12.4538 3.17173 12.8322 3.54762 13.0982 4.00001H15C15.099 3.99993 15.1957 4.02921 15.278 4.08415C15.3603 4.13908 15.4245 4.2172 15.4623 4.30861C15.5002 4.40002 15.5101 4.50062 15.4908 4.59766C15.4715 4.6947 15.4238 4.78383 15.3538 4.85376Z" fill="#3E5BF3"/>
</svg>
