<svg width="16" height="16" viewBox="0 0 16 16" fill="none" xmlns="http://www.w3.org/2000/svg">
<path d="M15.3538 4.85373L13.485 6.72248C13.1075 11.0987 9.41687 14.5 5 14.5C4.0925 14.5 3.34438 14.3562 2.77625 14.0725C2.31813 13.8431 2.13063 13.5975 2.08375 13.5275C2.04195 13.4648 2.01486 13.3935 2.0045 13.3189C1.99414 13.2442 2.00078 13.1682 2.02391 13.0965C2.04705 13.0248 2.08609 12.9593 2.13812 12.9048C2.19015 12.8503 2.25382 12.8083 2.32438 12.7819C2.34063 12.7756 3.83938 12.2 4.79125 11.1044C4.26337 10.6703 3.80255 10.1607 3.42375 9.59185C2.64875 8.44123 1.78125 6.44248 2.04875 3.4556C2.05723 3.36069 2.09265 3.27018 2.15085 3.19473C2.20904 3.11928 2.28758 3.06203 2.37722 3.02972C2.46687 2.99741 2.56387 2.99138 2.65682 3.01236C2.74977 3.03333 2.8348 3.08043 2.90188 3.1481C2.92375 3.16998 4.98188 5.21685 7.49813 5.8806V5.49998C7.49717 5.10085 7.57608 4.70556 7.73022 4.3374C7.88435 3.96923 8.1106 3.63563 8.39563 3.35623C8.67244 3.07981 9.00181 2.86163 9.36431 2.71457C9.72681 2.56751 10.1151 2.49454 10.5063 2.49998C11.031 2.50515 11.5454 2.64601 11.9996 2.90886C12.4538 3.1717 12.8322 3.54759 13.0981 3.99998H15C15.0989 3.9999 15.1957 4.02918 15.278 4.08412C15.3603 4.13905 15.4244 4.21717 15.4623 4.30858C15.5002 4.39999 15.5101 4.50059 15.4908 4.59763C15.4714 4.69467 15.4238 4.7838 15.3538 4.85373Z" fill="#3E5BF3"/>
</svg>
